<?xml version="1.0" encoding="utf-8"?>
<!-- Generator: Adobe Illustrator 28.2.0, SVG Export Plug-In . SVG Version: 6.00 Build 0)  -->
<svg version="1.1" id="Layer_1" xmlns="http://www.w3.org/2000/svg" xmlns:xlink="http://www.w3.org/1999/xlink" x="0px" y="0px"
	 viewBox="0 0 465 100.1" style="enable-background:new 0 0 465 100.1;" xml:space="preserve">
<style type="text/css">
	.st0{fill:#FFFFFF;}
</style>
<g>
	<g>
		<path class="st0" d="M0,95.6c1.5,1,3.4,1.8,5.7,1.8s4-0.6,4-2.7c0-1.4-1-2-3.2-2.9L5,91.2c-2.6-1-4.5-2.1-4.5-5s2.3-4.8,5.8-4.8
			c2.4,0,4.3,0.6,5.3,1V85c-1.3-0.7-3-1.3-5-1.3c-2.1,0-3.5,0.5-3.5,2.3s1.4,2.3,3.2,3L8,89.7c2.8,1.1,4.4,2.2,4.4,4.8
			c0,3.6-2.9,5.2-6.5,5.2c-2.6,0-4.6-0.7-5.9-1.5L0,95.6L0,95.6z"/>
		<path class="st0" d="M20.1,99.5V84h-5.7v-2.3h13.9V84h-5.7v15.5H20.1z"/>
		<path class="st0" d="M41.8,99.5l-2-4.9h-7.6l-2,4.9h-2.7l7.2-17.8h2.5l7.2,17.8C44.5,99.5,41.8,99.5,41.8,99.5z M35.9,84.5
			c0,0.1-0.8,2.2-3,7.7h6C36.8,86.8,36,84.7,35.9,84.5L35.9,84.5z"/>
		<path class="st0" d="M60.7,99.5C50.6,87.6,49.5,86.1,49.5,86.1v13.4H47V81.7h2.1c9.9,11.7,11,13.2,11,13.2V81.7h2.4v17.8H60.7z"/>
		<path class="st0" d="M67.2,81.7c0,0,3.9-0.1,6.1-0.1c2.1,0,3.9,0.3,5.3,0.9c2.7,1.2,4.5,3.7,4.5,7.9c0,3.7-1.9,7-5.3,8.3
			c-1.1,0.4-3.2,0.7-5.2,0.7h-5.4C67.2,99.5,67.2,81.7,67.2,81.7z M72.9,97.1c1.2,0,3.2-0.2,4.1-0.6c2.2-0.9,3.6-3.2,3.6-6
			c0-4.5-2.8-6.5-7.1-6.5c-1.1,0-2.7,0-3.9,0.1v13.1C69.7,97.1,72.9,97.1,72.9,97.1z"/>
		<path class="st0" d="M98.3,99.5l-2-4.9h-7.6l-2,4.9H84l7.2-17.8h2.5l7.2,17.8H98.3z M92.5,84.5c0,0.1-0.8,2.2-3,7.7h6
			C93.4,86.8,92.6,84.7,92.5,84.5L92.5,84.5z"/>
		<path class="st0" d="M103.9,99.5V81.7h2.5v15.4h8.3v2.4C114.6,99.5,103.9,99.5,103.9,99.5z"/>
		<path class="st0" d="M115.8,90.6c0-5.6,4.1-9.2,9.2-9.2c5.1,0,9,3.5,9,9.1c0,5-3.4,9.3-9.2,9.3S115.8,95.5,115.8,90.6L115.8,90.6z
			 M131.4,90.6c0-4.4-2.9-6.8-6.5-6.8c-3.8,0-6.6,2.6-6.6,6.8s2.7,6.8,6.6,6.8C128.8,97.4,131.4,94.8,131.4,90.6L131.4,90.6z"/>
		<path class="st0" d="M151.2,99.5c-10.1-11.9-11.1-13.4-11.1-13.4v13.4h-2.5V81.7h2.1c9.9,11.7,11,13.2,11,13.2V81.7h2.4v17.8
			H151.2z"/>
		<path class="st0" d="M168.7,99.5h-11V81.7h10.4V84h-8v5.2h7.5v2.4h-7.5v5.5h8.6V99.5L168.7,99.5z"/>
		<path class="st0" d="M191.7,99.5h-11V81.7h10.4V84h-8v5.2h7.5v2.4h-7.5v5.5h8.6V99.5L191.7,99.5z"/>
		<path class="st0" d="M208.8,99.5c-10.1-11.9-11.1-13.4-11.1-13.4v13.4h-2.5V81.7h2.1c9.9,11.7,11,13.2,11,13.2V81.7h2.4v17.8
			H208.8z"/>
		<path class="st0" d="M223.7,99.8c-6.4,0-9.4-4.3-9.4-9.2c0-5.7,4.2-9.2,9.3-9.2c3,0,5.2,0.8,6.2,1.2V85c-1.1-0.5-3-1.3-6.1-1.3
			c-3.8,0-6.8,2.4-6.8,6.9c0,4.3,2.8,6.8,6.8,6.8c1.6,0,3.1-0.4,4.2-0.9v-3.8h-4.3v-2.4h6.6v7.8C229.1,98.8,226.5,99.8,223.7,99.8
			L223.7,99.8z"/>
		<path class="st0" d="M234.6,99.5V81.7h2.5v17.8H234.6z"/>
		<path class="st0" d="M255.3,99.5c-10.1-11.9-11.1-13.4-11.1-13.4v13.4h-2.5V81.7h2.1c9.9,11.7,11,13.2,11,13.2V81.7h2.4v17.8
			H255.3z"/>
		<path class="st0" d="M272.8,99.5h-11V81.7h10.4V84h-8v5.2h7.5v2.4h-7.5v5.5h8.6V99.5L272.8,99.5z"/>
		<path class="st0" d="M299.3,99.5V85.7c0,0-0.9,1.4-5.7,8h-0.5c-4.8-6.6-5.7-8-5.7-8v13.7h-2.5V81.7h2.4l6.1,8.5l6.1-8.5h2.3v17.8
			H299.3L299.3,99.5z"/>
		<path class="st0" d="M318.9,99.5l-2-4.9h-7.6l-2,4.9h-2.7l7.2-17.8h2.5l7.2,17.8H318.9z M313,84.5c0,0.1-0.8,2.2-3,7.7h6
			C313.9,86.8,313.1,84.7,313,84.5L313,84.5z"/>
		<path class="st0" d="M337.8,99.5c-10.1-11.9-11.1-13.4-11.1-13.4v13.4h-2.5V81.7h2.1c9.9,11.7,11,13.2,11,13.2V81.7h2.4v17.8
			H337.8L337.8,99.5z"/>
		<path class="st0" d="M356.6,99.5l-2-4.9H347l-2,4.9h-2.7l7.2-17.8h2.5l7.2,17.8H356.6z M350.7,84.5c0,0.1-0.8,2.2-3,7.7h6
			C351.6,86.8,350.8,84.7,350.7,84.5L350.7,84.5z"/>
		<path class="st0" d="M369.7,99.8c-6.4,0-9.4-4.3-9.4-9.2c0-5.7,4.2-9.2,9.3-9.2c3,0,5.2,0.8,6.2,1.2V85c-1.1-0.5-3-1.3-6.1-1.3
			c-3.8,0-6.8,2.4-6.8,6.9c0,4.3,2.8,6.8,6.8,6.8c1.6,0,3.1-0.4,4.2-0.9v-3.8h-4.3v-2.4h6.6v7.8C375.1,98.8,372.5,99.8,369.7,99.8
			L369.7,99.8z"/>
		<path class="st0" d="M391.6,99.5h-11V81.7H391V84h-8v5.2h7.5v2.4H383v5.5h8.6V99.5L391.6,99.5z"/>
		<path class="st0" d="M409.7,99.5V85.7c0,0-0.9,1.4-5.7,8h-0.5c-4.8-6.6-5.7-8-5.7-8v13.7h-2.5V81.7h2.4l6.1,8.5l6.1-8.5h2.3v17.8
			H409.7L409.7,99.5z"/>
		<path class="st0" d="M428,99.5h-11V81.7h10.4V84h-8v5.2h7.5v2.4h-7.5v5.5h8.6V99.5L428,99.5z"/>
		<path class="st0" d="M445.1,99.5C435,87.6,434,86.1,434,86.1v13.4h-2.5V81.7h2.1c9.9,11.7,11,13.2,11,13.2V81.7h2.4v17.8H445.1
			L445.1,99.5z"/>
		<path class="st0" d="M455.5,99.5V84h-5.7v-2.3h13.9V84H458v15.5H455.5L455.5,99.5z"/>
	</g>
	<g>
		<g>
			<g>
				<path class="st0" d="M33.9,68C13.1,68,0.1,55.1,0.1,34.5S15.6,1.1,35.2,1.1c9.6,0,17.8,2.3,21.7,3.8v15.3
					c-3.4-1.5-11.5-4.1-19.8-4.1c-9.8,0-19.3,4.4-19.3,18.7c0,13.1,8.7,18.2,19.1,18.2c8.3,0,17.4-3,20.7-4.5v14.8
					C52.6,65.7,43.5,68,33.9,68L33.9,68z"/>
				<path class="st0" d="M64.4,34.6C64.4,14.4,79,1.1,99.1,1.1s33.5,13,33.5,32.5c0,20.5-14,34.4-34.6,34.4S64.4,53.8,64.4,34.6z
					 M115,34.6c0-12.3-6.8-18.5-16.1-18.5C88.8,16.1,82,22.5,82,34.6S88.8,53,98.7,53S115,46.5,115,34.6z"/>
				<path class="st0" d="M250.7,66.4h-45.8V1.8h43.7v14h-26.9V26H246v14.2h-24.3V51h29V66.4L250.7,66.4z"/>
				<path class="st0" d="M156.6,43.8h3.8c3.3,0,5.3,0.6,7.1,2c1.6,1.3,2.9,3.4,4.1,5.7l8.2,14.9h18.8l-10-18.1
					c-1.1-2.1-3.1-5.1-4.5-6.7c-1.1-1.2-3-2.8-5.5-3.5c2.1-0.5,3.8-1.3,5.1-2.2c4.6-2.9,8-8,8-14.4c0-6.9-3.2-12.7-8.6-16
					C179,3,172,2,164.7,2h-25.1v14l26.2,0.1c1.8,0.1,3.9,0.5,5.2,1.3c1.9,1.1,3.3,3.3,3.3,5.8s-1,4.5-2.9,5.9
					c-1.3,0.9-3.4,1.5-5.6,1.6l-26.2,0.1v35.9h17L156.6,43.8L156.6,43.8z"/>
			</g>
			<path class="st0" d="M370.2,66.9c-20.8,0-33.8-12.9-33.8-33.5S352,0,371.5,0c9.6,0,17.8,2.3,21.6,3.8v15.3
				c-3.4-1.5-11.5-4.1-19.8-4.1c-9.8,0-19.3,4.4-19.3,18.7c0,13.1,8.7,18.2,19.1,18.2c8.3,0,17.4-3,20.7-4.5v14.8
				C388.9,64.6,379.8,66.9,370.2,66.9z"/>
			<path class="st0" d="M330.5,65.8h-45.8V1.2h43.7v14h-26.9v10.2h24.3v14.2h-24.3v10.8h29L330.5,65.8L330.5,65.8z"/>
		</g>
		<g>
			<path class="st0" d="M463.7,34.9c0,3.2-0.1,6.6-0.6,9.4c-2.7,15-13.7,22.6-29.8,22.6c-16.3,0-27.4-7.7-28.8-21.9
				c-0.3-2.6-0.5-6.4-0.5-9.1V1.3h17.2v34.4c0,2.3,0.1,4.7,0.4,6.7c1.1,6.6,5.5,9.5,12.4,9.5c6.6,0,11.1-3,12.2-9.4
				c0.4-2,0.4-4.4,0.4-6.8V1.3h17.1L463.7,34.9L463.7,34.9z"/>
		</g>
	</g>
</g>
</svg>
