<?xml version="1.0" encoding="utf-8"?>
<!-- Generator: Adobe Illustrator 27.1.1, SVG Export Plug-In . SVG Version: 6.00 Build 0)  -->
<svg version="1.1" id="Layer_1" xmlns="http://www.w3.org/2000/svg" xmlns:xlink="http://www.w3.org/1999/xlink" x="0px" y="0px"
	 viewBox="0 0 271 252" style="enable-background:new 0 0 271 252;" xml:space="preserve">
<style type="text/css">
	.st0{fill:#1E76BA;}
	.st1{fill:#1F75A8;}
	.st2{fill:#FFFFFF;}
</style>
<path class="st0" d="M270.2,100.7c0,22.4-1.2,42.7-3.6,60.9c-2.4,18.1-7.5,33.7-15.5,46.6c-8,13-19.5,23.1-34.7,30.4
	c-15.1,7.3-35.2,11.4-60.2,12.3v-58.3c7.8-0.4,14.2-1.6,19.4-3.6c5.2-1.9,9.4-5.1,12.6-9.4c3.2-4.3,5.6-10.2,7.1-17.5
	c1.5-7.3,2.5-17.1,2.9-29.1h-42.1V1h114V100.7z M114.8,100.7c0,22.4-1.2,42.7-3.6,60.9c-2.4,18.1-7.5,33.7-15.5,46.6
	c-8,13-19.5,23.1-34.7,30.4C45.9,246,25.8,250.1,0.8,251v-58.3c7.8-0.4,14.2-1.6,19.4-3.6c5.2-1.9,9.4-5.1,12.6-9.4
	c3.2-4.3,5.6-10.2,7.1-17.5c1.5-7.3,2.5-17.1,2.9-29.1H0.8V1h114V100.7z"/>
</svg>
