<?xml version="1.0" encoding="UTF-8"?>
<svg id="Layer_1" data-name="Layer 1" xmlns="http://www.w3.org/2000/svg" viewBox="0 0 550.1 80.1">
  <defs>
    <style>
      .cls-1 {
        fill: #fff;
        stroke-width: 0px;
      }
    </style>
  </defs>
  <g>
    <path class="cls-1" d="M123.23,80.05c-24.61,0-40.98-14.7-40.98-40.06S101.06.05,124.86.05c11.03,0,21.13,2.55,26,4.4v20.03c-4.06-1.85-14.16-4.75-23.45-4.75-10.56,0-21.36,4.17-21.36,20.61,0,15.17,9.98,20.03,21.13,20.03,9.52,0,20.31-3.36,24.38-4.98v19.33c-5.8,2.66-16.95,5.33-28.32,5.33"/>
    <path class="cls-1" d="M222.13,78.54v-40.87c-.12.23-3.02,5.9-14.16,23.73h-6.85c-11.72-17.95-14.39-23.39-14.63-23.73v40.87h-23.1V1.56h21.13l19.73,30.68L224.11,1.56h21.13v76.99h-23.1Z"/>
    <polygon class="cls-1" points="38.18 35.5 24.87 1.56 .05 1.56 25.52 67.91 38.18 35.5"/>
    <path class="cls-1" d="M29.72,74.73l21.26-54.43c.33-.84.88-1.58,1.59-2.15l20.03-15.88c.58-.46,1.3-.71,2.04-.71h5.93c1.18,0,2,1.18,1.58,2.28l-27.53,71.88c-.65,1.7-2.29,2.83-4.12,2.83h-18.16c-1.98,0-3.33-1.98-2.62-3.82"/>
  </g>
  <path class="cls-1" d="M272.28,78.54h277.77V1.56h-277.77v76.99ZM329.28,60.7c-5.57,0-10.33-1.33-13.75-2.95v-9.32c4.12,2.31,8.76,3.82,12.59,3.82s5.86-.75,5.86-3.13c0-1.62-1.22-2.55-4.53-3.88l-3.83-1.5c-5.46-2.14-9.4-5.21-9.4-11.17,0-7.58,5.57-11.63,14.57-11.63,5.46,0,9.75,1.1,12.54,2.2v8.91c-3.6-1.74-7.55-2.72-11.09-2.72-3.02,0-4.99.64-4.99,2.66s1.39,2.84,4.47,4.17l3.54,1.51c6.56,2.78,9.87,5.33,9.87,10.82,0,7.58-5.4,12.21-15.84,12.21M395.21,41.6c0,1.91-.06,3.94-.35,5.61-1.63,8.97-8.24,13.54-17.88,13.54s-16.42-4.63-17.3-13.08c-.17-1.56-.29-3.82-.29-5.44v-20.72h10.33v20.61c0,1.39.06,2.84.23,3.99.64,3.94,3.31,5.67,7.43,5.67s6.67-1.79,7.31-5.61c.23-1.22.23-2.66.23-4.05v-20.61h10.27v20.09ZM421.73,60h-10.33V21.51h10.33v38.49ZM466.88,30.54h-11.03v29.46h-10.27v-29.46h-11.09v-9.03h32.38v9.03ZM506.81,60h-27.51V21.51h26.23v8.68h-16.13v6.08h14.57v8.51h-14.57v6.48h17.41v8.74Z"/>
</svg>